<mxfile host="Electron" modified="2023-10-28T20:50:58.371Z" agent="Mozilla/5.0 (Macintosh; Intel Mac OS X 10_15_7) AppleWebKit/537.36 (KHTML, like Gecko) draw.io/22.0.3 Chrome/114.0.5735.289 Electron/25.8.4 Safari/537.36" etag="CMOVAJC-1F_BBZ2BUn2D" version="22.0.3" type="device">
  <diagram name="Page-1" id="6miZIJ7tyJp7_7zHXpiV">
    <mxGraphModel dx="1857" dy="1463" grid="1" gridSize="10" guides="1" tooltips="1" connect="1" arrows="1" fold="1" page="1" pageScale="1" pageWidth="850" pageHeight="1100" math="0" shadow="0">
      <root>
        <mxCell id="0" />
        <mxCell id="1" parent="0" />
        <mxCell id="JtnzJ_fRYUEVDxltZexB-1" value="Default view" style="strokeWidth=1;shadow=0;dashed=0;align=center;html=1;shape=mxgraph.mockup.containers.window;align=left;verticalAlign=top;spacingLeft=8;strokeColor2=#008cff;strokeColor3=#c4c4c4;fontColor=#666666;mainText=;fontSize=17;labelBackgroundColor=none;whiteSpace=wrap;" vertex="1" parent="1">
          <mxGeometry x="330" y="160" width="1080" height="720" as="geometry" />
        </mxCell>
        <mxCell id="JtnzJ_fRYUEVDxltZexB-2" value="Search" style="strokeWidth=1;shadow=0;dashed=0;align=center;html=1;shape=mxgraph.mockup.forms.searchBox;strokeColor=#999999;mainText=;strokeColor2=#008cff;fontColor=#666666;fontSize=17;align=left;spacingLeft=3;whiteSpace=wrap;" vertex="1" parent="1">
          <mxGeometry x="850" y="250" width="500" height="30" as="geometry" />
        </mxCell>
        <mxCell id="JtnzJ_fRYUEVDxltZexB-3" value="&lt;font style=&quot;font-size: 24px;&quot;&gt;My Wardrobe&lt;/font&gt;" style="text;html=1;strokeColor=none;fillColor=none;align=center;verticalAlign=middle;whiteSpace=wrap;rounded=0;" vertex="1" parent="1">
          <mxGeometry x="400" y="250" width="340" height="30" as="geometry" />
        </mxCell>
        <mxCell id="JtnzJ_fRYUEVDxltZexB-4" value="&lt;span style=&quot;font-size: 20px;&quot;&gt;&lt;b&gt;Item name A&lt;/b&gt;&lt;/span&gt;&lt;br style=&quot;font-size: 14px&quot;&gt;&lt;ul&gt;&lt;li&gt;Last worn: date&lt;/li&gt;&lt;li&gt;Status: state&lt;/li&gt;&lt;/ul&gt;" style="html=1;shadow=0;dashed=0;shape=mxgraph.bootstrap.rrect;rSize=5;strokeColor=#DFDFDF;html=1;whiteSpace=wrap;fillColor=#ffffff;fontColor=#000000;verticalAlign=bottom;align=left;spacing=20;spacingBottom=50;fontSize=14;" vertex="1" parent="1">
          <mxGeometry x="440" y="360" width="250" height="350" as="geometry" />
        </mxCell>
        <mxCell id="JtnzJ_fRYUEVDxltZexB-5" value="Item image" style="html=1;shadow=0;dashed=0;shape=mxgraph.bootstrap.topButton;rSize=5;perimeter=none;whiteSpace=wrap;fillColor=#868E96;strokeColor=#DFDFDF;fontColor=#DEE2E6;resizeWidth=1;fontSize=18;" vertex="1" parent="JtnzJ_fRYUEVDxltZexB-4">
          <mxGeometry width="250" height="180" relative="1" as="geometry" />
        </mxCell>
        <mxCell id="JtnzJ_fRYUEVDxltZexB-6" value="Detailed view" style="html=1;shadow=0;dashed=0;shape=mxgraph.bootstrap.rrect;rSize=5;perimeter=none;whiteSpace=wrap;fillColor=#0085FC;strokeColor=none;fontColor=#ffffff;resizeWidth=1;fontSize=14;" vertex="1" parent="JtnzJ_fRYUEVDxltZexB-4">
          <mxGeometry y="1" width="100" height="40" relative="1" as="geometry">
            <mxPoint x="20" y="-60" as="offset" />
          </mxGeometry>
        </mxCell>
        <mxCell id="JtnzJ_fRYUEVDxltZexB-73" value="&lt;font style=&quot;font-size: 14px;&quot;&gt;Wear Today&lt;/font&gt;" style="html=1;shadow=0;dashed=0;shape=mxgraph.bootstrap.rrect;rSize=5;strokeColor=none;strokeWidth=1;fillColor=#6C767D;fontColor=#FFFFFF;whiteSpace=wrap;align=center;verticalAlign=middle;spacingLeft=0;fontStyle=0;fontSize=16;spacing=5;" vertex="1" parent="JtnzJ_fRYUEVDxltZexB-4">
          <mxGeometry x="130" y="290" width="100" height="40" as="geometry" />
        </mxCell>
        <mxCell id="JtnzJ_fRYUEVDxltZexB-7" value="&lt;span style=&quot;font-size: 20px;&quot;&gt;&lt;b&gt;Item name B&lt;/b&gt;&lt;/span&gt;&lt;br style=&quot;font-size: 14px&quot;&gt;&lt;ul&gt;&lt;li&gt;Last worn: date&lt;/li&gt;&lt;li&gt;Status: state&lt;/li&gt;&lt;/ul&gt;" style="html=1;shadow=0;dashed=0;shape=mxgraph.bootstrap.rrect;rSize=5;strokeColor=#DFDFDF;html=1;whiteSpace=wrap;fillColor=#ffffff;fontColor=#000000;verticalAlign=bottom;align=left;spacing=20;spacingBottom=50;fontSize=14;" vertex="1" parent="1">
          <mxGeometry x="750" y="360" width="250" height="350" as="geometry" />
        </mxCell>
        <mxCell id="JtnzJ_fRYUEVDxltZexB-8" value="Item image" style="html=1;shadow=0;dashed=0;shape=mxgraph.bootstrap.topButton;rSize=5;perimeter=none;whiteSpace=wrap;fillColor=#868E96;strokeColor=#DFDFDF;fontColor=#DEE2E6;resizeWidth=1;fontSize=18;" vertex="1" parent="JtnzJ_fRYUEVDxltZexB-7">
          <mxGeometry width="250" height="180" relative="1" as="geometry" />
        </mxCell>
        <mxCell id="JtnzJ_fRYUEVDxltZexB-9" value="Detailed view" style="html=1;shadow=0;dashed=0;shape=mxgraph.bootstrap.rrect;rSize=5;perimeter=none;whiteSpace=wrap;fillColor=#0085FC;strokeColor=none;fontColor=#ffffff;resizeWidth=1;fontSize=14;" vertex="1" parent="JtnzJ_fRYUEVDxltZexB-7">
          <mxGeometry y="1" width="100" height="40" relative="1" as="geometry">
            <mxPoint x="20" y="-60" as="offset" />
          </mxGeometry>
        </mxCell>
        <mxCell id="JtnzJ_fRYUEVDxltZexB-74" value="&lt;font style=&quot;font-size: 14px;&quot;&gt;Wear Today&lt;/font&gt;" style="html=1;shadow=0;dashed=0;shape=mxgraph.bootstrap.rrect;rSize=5;strokeColor=none;strokeWidth=1;fillColor=#6C767D;fontColor=#FFFFFF;whiteSpace=wrap;align=center;verticalAlign=middle;spacingLeft=0;fontStyle=0;fontSize=16;spacing=5;" vertex="1" parent="JtnzJ_fRYUEVDxltZexB-7">
          <mxGeometry x="130" y="290" width="100" height="40" as="geometry" />
        </mxCell>
        <mxCell id="JtnzJ_fRYUEVDxltZexB-10" value="&lt;span style=&quot;font-size: 20px;&quot;&gt;&lt;b&gt;Item name C&lt;/b&gt;&lt;/span&gt;&lt;br style=&quot;font-size: 14px&quot;&gt;&lt;ul&gt;&lt;li&gt;Last worn: date&lt;/li&gt;&lt;li&gt;Status: state&lt;/li&gt;&lt;/ul&gt;" style="html=1;shadow=0;dashed=0;shape=mxgraph.bootstrap.rrect;rSize=5;strokeColor=#DFDFDF;html=1;whiteSpace=wrap;fillColor=#ffffff;fontColor=#000000;verticalAlign=bottom;align=left;spacing=20;spacingBottom=50;fontSize=14;" vertex="1" parent="1">
          <mxGeometry x="1070" y="360" width="250" height="350" as="geometry" />
        </mxCell>
        <mxCell id="JtnzJ_fRYUEVDxltZexB-11" value="Item image" style="html=1;shadow=0;dashed=0;shape=mxgraph.bootstrap.topButton;rSize=5;perimeter=none;whiteSpace=wrap;fillColor=#868E96;strokeColor=#DFDFDF;fontColor=#DEE2E6;resizeWidth=1;fontSize=18;" vertex="1" parent="JtnzJ_fRYUEVDxltZexB-10">
          <mxGeometry width="250" height="180" relative="1" as="geometry" />
        </mxCell>
        <mxCell id="JtnzJ_fRYUEVDxltZexB-12" value="Detailed view" style="html=1;shadow=0;dashed=0;shape=mxgraph.bootstrap.rrect;rSize=5;perimeter=none;whiteSpace=wrap;fillColor=#0085FC;strokeColor=none;fontColor=#ffffff;resizeWidth=1;fontSize=14;" vertex="1" parent="JtnzJ_fRYUEVDxltZexB-10">
          <mxGeometry y="1" width="100" height="40" relative="1" as="geometry">
            <mxPoint x="20" y="-60" as="offset" />
          </mxGeometry>
        </mxCell>
        <mxCell id="JtnzJ_fRYUEVDxltZexB-75" value="&lt;font style=&quot;font-size: 14px;&quot;&gt;Wear Today&lt;/font&gt;" style="html=1;shadow=0;dashed=0;shape=mxgraph.bootstrap.rrect;rSize=5;strokeColor=none;strokeWidth=1;fillColor=#6C767D;fontColor=#FFFFFF;whiteSpace=wrap;align=center;verticalAlign=middle;spacingLeft=0;fontStyle=0;fontSize=16;spacing=5;" vertex="1" parent="JtnzJ_fRYUEVDxltZexB-10">
          <mxGeometry x="130" y="290" width="100" height="40" as="geometry" />
        </mxCell>
        <mxCell id="JtnzJ_fRYUEVDxltZexB-25" value="" style="html=1;shadow=0;dashed=0;shape=mxgraph.bootstrap.rrect;rSize=5;strokeColor=#DEE2E6;html=1;whiteSpace=wrap;fillColor=#ffffff;fontColor=#0085FC;" vertex="1" parent="1">
          <mxGeometry x="780" y="790" width="150" height="30" as="geometry" />
        </mxCell>
        <mxCell id="JtnzJ_fRYUEVDxltZexB-26" value="&lt;&lt;" style="strokeColor=inherit;fillColor=inherit;gradientColor=inherit;fontColor=inherit;html=1;shadow=0;dashed=0;shape=mxgraph.bootstrap.leftButton;rSize=5;perimeter=none;whiteSpace=wrap;resizeHeight=1;fontSize=14;" vertex="1" parent="JtnzJ_fRYUEVDxltZexB-25">
          <mxGeometry width="30" height="30" relative="1" as="geometry" />
        </mxCell>
        <mxCell id="JtnzJ_fRYUEVDxltZexB-27" value="1" style="strokeColor=inherit;fillColor=inherit;gradientColor=inherit;fontColor=inherit;html=1;shadow=0;dashed=0;perimeter=none;whiteSpace=wrap;resizeHeight=1;fontSize=14;" vertex="1" parent="JtnzJ_fRYUEVDxltZexB-25">
          <mxGeometry width="30" height="30" relative="1" as="geometry">
            <mxPoint x="30" as="offset" />
          </mxGeometry>
        </mxCell>
        <mxCell id="JtnzJ_fRYUEVDxltZexB-28" value="2" style="strokeColor=inherit;fillColor=inherit;gradientColor=inherit;fontColor=inherit;html=1;shadow=0;dashed=0;perimeter=none;whiteSpace=wrap;resizeHeight=1;fontSize=14;" vertex="1" parent="JtnzJ_fRYUEVDxltZexB-25">
          <mxGeometry width="30" height="30" relative="1" as="geometry">
            <mxPoint x="60" as="offset" />
          </mxGeometry>
        </mxCell>
        <mxCell id="JtnzJ_fRYUEVDxltZexB-29" value="3" style="strokeColor=inherit;fillColor=inherit;gradientColor=inherit;fontColor=inherit;html=1;shadow=0;dashed=0;perimeter=none;whiteSpace=wrap;resizeHeight=1;fontSize=14;" vertex="1" parent="JtnzJ_fRYUEVDxltZexB-25">
          <mxGeometry width="30" height="30" relative="1" as="geometry">
            <mxPoint x="90" as="offset" />
          </mxGeometry>
        </mxCell>
        <mxCell id="JtnzJ_fRYUEVDxltZexB-30" value="&gt;&gt;" style="strokeColor=inherit;fillColor=inherit;gradientColor=inherit;fontColor=inherit;html=1;shadow=0;dashed=0;shape=mxgraph.bootstrap.rightButton;rSize=5;perimeter=none;whiteSpace=wrap;resizeHeight=1;fontSize=14;" vertex="1" parent="JtnzJ_fRYUEVDxltZexB-25">
          <mxGeometry x="1" width="30" height="30" relative="1" as="geometry">
            <mxPoint x="-30" as="offset" />
          </mxGeometry>
        </mxCell>
        <mxCell id="JtnzJ_fRYUEVDxltZexB-76" value="Active when status is &quot;Ready&quot;" style="strokeWidth=1;shadow=0;dashed=0;align=center;html=1;shape=mxgraph.mockup.text.callout;linkText=;textSize=17;textColor=#666666;callDir=NE;callStyle=line;fontSize=17;fontColor=#666666;align=right;verticalAlign=top;strokeColor=#666666;" vertex="1" parent="1">
          <mxGeometry x="1300" y="550" width="380" height="100" as="geometry" />
        </mxCell>
        <mxCell id="JtnzJ_fRYUEVDxltZexB-77" value="&lt;font color=&quot;#ffffff&quot;&gt;Item view&lt;/font&gt;" style="strokeWidth=1;shadow=0;dashed=0;align=center;html=1;shape=mxgraph.mockup.containers.window;align=left;verticalAlign=top;spacingLeft=8;strokeColor2=#008cff;strokeColor3=#c4c4c4;fontColor=#666666;mainText=;fontSize=17;labelBackgroundColor=none;whiteSpace=wrap;" vertex="1" parent="1">
          <mxGeometry x="365" y="1210" width="1020" height="720" as="geometry" />
        </mxCell>
        <mxCell id="JtnzJ_fRYUEVDxltZexB-79" value="Category" style="strokeWidth=1;shadow=0;dashed=0;align=center;html=1;shape=mxgraph.mockup.forms.comboBox;strokeColor=#999999;fillColor=#ddeeff;align=left;fillColor2=#aaddff;mainText=;fontColor=#666666;fontSize=17;spacingLeft=3;" vertex="1" parent="1">
          <mxGeometry x="1155" y="1370" width="150" height="30" as="geometry" />
        </mxCell>
        <mxCell id="JtnzJ_fRYUEVDxltZexB-80" value="State" style="strokeWidth=1;shadow=0;dashed=0;align=center;html=1;shape=mxgraph.mockup.forms.comboBox;strokeColor=#999999;fillColor=#ddeeff;align=left;fillColor2=#aaddff;mainText=;fontColor=#666666;fontSize=17;spacingLeft=3;" vertex="1" parent="1">
          <mxGeometry x="905" y="1487" width="150" height="30" as="geometry" />
        </mxCell>
        <mxCell id="JtnzJ_fRYUEVDxltZexB-83" value="" style="verticalLabelPosition=bottom;shadow=0;dashed=0;align=center;html=1;verticalAlign=top;strokeWidth=1;shape=mxgraph.mockup.graphics.simpleIcon;strokeColor=#999999;" vertex="1" parent="1">
          <mxGeometry x="445" y="1330" width="350" height="280" as="geometry" />
        </mxCell>
        <mxCell id="JtnzJ_fRYUEVDxltZexB-84" value="Last Worn" style="fillColor=none;strokeColor=none;html=1;fontSize=11;fontStyle=0;align=left;fontColor=#596780;fontStyle=1;fontSize=11" vertex="1" parent="1">
          <mxGeometry x="1155" y="1460" width="150" height="20" as="geometry" />
        </mxCell>
        <mxCell id="JtnzJ_fRYUEVDxltZexB-85" value="Today" style="rounded=1;arcSize=9;fillColor=#ffffff;align=left;spacingLeft=5;strokeColor=#0057D8;html=1;strokeWidth=2;fontColor=#253858;fontSize=12" vertex="1" parent="1">
          <mxGeometry x="1155" y="1484" width="150" height="33" as="geometry" />
        </mxCell>
        <mxCell id="JtnzJ_fRYUEVDxltZexB-86" value="" style="shape=mxgraph.gmdl.calendar;fillColor=#253858;strokeColor=none" vertex="1" parent="JtnzJ_fRYUEVDxltZexB-85">
          <mxGeometry x="1" y="0.5" width="18" height="18" relative="1" as="geometry">
            <mxPoint x="-29" y="-9" as="offset" />
          </mxGeometry>
        </mxCell>
        <mxCell id="JtnzJ_fRYUEVDxltZexB-88" value="" style="verticalLabelPosition=bottom;shadow=0;dashed=0;align=center;html=1;verticalAlign=top;strokeWidth=1;shape=mxgraph.mockup.forms.splitter;strokeColor=#999999;" vertex="1" parent="1">
          <mxGeometry x="410" y="1640" width="945" height="10" as="geometry" />
        </mxCell>
        <mxCell id="JtnzJ_fRYUEVDxltZexB-90" value="Today" style="rounded=1;arcSize=9;fillColor=#ffffff;align=left;spacingLeft=5;strokeColor=#0057D8;html=1;strokeWidth=2;fontColor=#253858;fontSize=12" vertex="1" parent="1">
          <mxGeometry x="505" y="1780" width="150" height="33" as="geometry" />
        </mxCell>
        <mxCell id="JtnzJ_fRYUEVDxltZexB-91" value="" style="shape=mxgraph.gmdl.calendar;fillColor=#253858;strokeColor=none" vertex="1" parent="JtnzJ_fRYUEVDxltZexB-90">
          <mxGeometry x="1" y="0.5" width="18" height="18" relative="1" as="geometry">
            <mxPoint x="-29" y="-9" as="offset" />
          </mxGeometry>
        </mxCell>
        <mxCell id="JtnzJ_fRYUEVDxltZexB-92" value="Purchased" style="fillColor=none;strokeColor=none;html=1;fontSize=11;fontStyle=0;align=left;fontColor=#596780;fontStyle=1;fontSize=11" vertex="1" parent="1">
          <mxGeometry x="505" y="1760" width="150" height="20" as="geometry" />
        </mxCell>
        <mxCell id="JtnzJ_fRYUEVDxltZexB-96" value="" style="html=1;shadow=0;dashed=0;shape=mxgraph.bootstrap.rrect;rSize=5;strokeColor=#CED4DA;html=1;whiteSpace=wrap;fillColor=#FFFFFF;fontColor=#7D868C;align=left;spacing=15;spacingLeft=40;fontSize=14;" vertex="1" parent="1">
          <mxGeometry x="505" y="1845" width="150" height="40" as="geometry" />
        </mxCell>
        <mxCell id="JtnzJ_fRYUEVDxltZexB-97" value="$" style="html=1;shadow=0;dashed=0;shape=mxgraph.bootstrap.leftButton;strokeColor=inherit;gradientColor=inherit;fontColor=inherit;fillColor=#E9ECEF;rSize=5;perimeter=none;whiteSpace=wrap;resizeHeight=1;fontSize=14;" vertex="1" parent="JtnzJ_fRYUEVDxltZexB-96">
          <mxGeometry width="40" height="40" relative="1" as="geometry" />
        </mxCell>
        <mxCell id="JtnzJ_fRYUEVDxltZexB-98" value="0.00" style="html=1;shadow=0;dashed=0;strokeColor=inherit;gradientColor=inherit;fontColor=inherit;fillColor=#E9ECEF;perimeter=none;whiteSpace=wrap;resizeHeight=1;fontSize=14;" vertex="1" parent="JtnzJ_fRYUEVDxltZexB-96">
          <mxGeometry width="60" height="40" relative="1" as="geometry">
            <mxPoint x="40" as="offset" />
          </mxGeometry>
        </mxCell>
        <mxCell id="JtnzJ_fRYUEVDxltZexB-99" value="" style="html=1;shadow=0;dashed=0;shape=mxgraph.bootstrap.checkbox2;labelPosition=right;verticalLabelPosition=middle;align=left;verticalAlign=middle;gradientColor=#DEDEDE;fillColor=#EDEDED;checked=0;spacing=5;checkedFill=#0085FC;checkedStroke=#ffffff;sketch=0;" vertex="1" parent="1">
          <mxGeometry x="1095" y="1710" width="10" height="10" as="geometry" />
        </mxCell>
        <mxCell id="JtnzJ_fRYUEVDxltZexB-100" value="" style="html=1;shadow=0;dashed=0;shape=mxgraph.bootstrap.checkbox2;labelPosition=right;verticalLabelPosition=middle;align=left;verticalAlign=middle;gradientColor=#DEDEDE;fillColor=#EDEDED;checked=0;spacing=5;checkedFill=#0085FC;checkedStroke=#ffffff;sketch=0;" vertex="1" parent="1">
          <mxGeometry x="1195" y="1710" width="10" height="10" as="geometry" />
        </mxCell>
        <mxCell id="JtnzJ_fRYUEVDxltZexB-101" value="" style="html=1;shadow=0;dashed=0;shape=mxgraph.bootstrap.checkbox2;labelPosition=right;verticalLabelPosition=middle;align=left;verticalAlign=middle;gradientColor=#DEDEDE;fillColor=#EDEDED;checked=0;spacing=5;checkedFill=#0085FC;checkedStroke=#ffffff;sketch=0;" vertex="1" parent="1">
          <mxGeometry x="1095" y="1750" width="10" height="10" as="geometry" />
        </mxCell>
        <mxCell id="JtnzJ_fRYUEVDxltZexB-102" value="" style="html=1;shadow=0;dashed=0;shape=mxgraph.bootstrap.checkbox2;labelPosition=right;verticalLabelPosition=middle;align=left;verticalAlign=middle;gradientColor=#DEDEDE;fillColor=#EDEDED;checked=0;spacing=5;checkedFill=#0085FC;checkedStroke=#ffffff;sketch=0;" vertex="1" parent="1">
          <mxGeometry x="1195" y="1750" width="10" height="10" as="geometry" />
        </mxCell>
        <mxCell id="JtnzJ_fRYUEVDxltZexB-103" value="Winter" style="text;html=1;strokeColor=none;fillColor=none;align=center;verticalAlign=middle;whiteSpace=wrap;rounded=0;" vertex="1" parent="1">
          <mxGeometry x="1105" y="1700" width="60" height="30" as="geometry" />
        </mxCell>
        <mxCell id="JtnzJ_fRYUEVDxltZexB-104" value="Summer" style="text;html=1;strokeColor=none;fillColor=none;align=center;verticalAlign=middle;whiteSpace=wrap;rounded=0;" vertex="1" parent="1">
          <mxGeometry x="1105" y="1740" width="60" height="30" as="geometry" />
        </mxCell>
        <mxCell id="JtnzJ_fRYUEVDxltZexB-105" value="Sprint" style="text;html=1;strokeColor=none;fillColor=none;align=center;verticalAlign=middle;whiteSpace=wrap;rounded=0;" vertex="1" parent="1">
          <mxGeometry x="1205" y="1700" width="60" height="30" as="geometry" />
        </mxCell>
        <mxCell id="JtnzJ_fRYUEVDxltZexB-106" value="Fall" style="text;html=1;strokeColor=none;fillColor=none;align=center;verticalAlign=middle;whiteSpace=wrap;rounded=0;" vertex="1" parent="1">
          <mxGeometry x="1205" y="1740" width="60" height="30" as="geometry" />
        </mxCell>
        <mxCell id="JtnzJ_fRYUEVDxltZexB-107" value="Occasion" style="html=1;shadow=0;dashed=0;shape=mxgraph.bootstrap.rrect;rSize=5;strokeColor=#CED4DA;html=1;whiteSpace=wrap;fillColor=#FFFFFF;fontColor=#7D868C;align=left;spacingLeft=0;spacing=15;fontSize=14;" vertex="1" parent="1">
          <mxGeometry x="1095" y="1781.5" width="210" height="40" as="geometry" />
        </mxCell>
        <mxCell id="JtnzJ_fRYUEVDxltZexB-108" value="Add" style="html=1;shadow=0;dashed=0;shape=mxgraph.bootstrap.rightButton;strokeColor=#6C757D;gradientColor=inherit;fontColor=inherit;fillColor=inherit;rSize=5;perimeter=none;whiteSpace=wrap;resizeHeight=1;fontSize=14;" vertex="1" parent="JtnzJ_fRYUEVDxltZexB-107">
          <mxGeometry x="1" width="70" height="40" relative="1" as="geometry">
            <mxPoint x="-70" as="offset" />
          </mxGeometry>
        </mxCell>
        <mxCell id="JtnzJ_fRYUEVDxltZexB-109" value="Additional Notes" style="fillColor=none;strokeColor=none;html=1;fontSize=11;fontStyle=0;align=left;fontColor=#596780;fontStyle=1;fontSize=11" vertex="1" parent="1">
          <mxGeometry x="1100" y="1845" width="240" height="20" as="geometry" />
        </mxCell>
        <mxCell id="JtnzJ_fRYUEVDxltZexB-110" value="Watermelon Squad" style="rounded=1;arcSize=9;fillColor=#F7F8F9;align=left;spacingLeft=5;strokeColor=#DEE1E6;html=1;strokeWidth=2;fontSize=12" vertex="1" parent="1">
          <mxGeometry x="1100" y="1870" width="260" height="40" as="geometry" />
        </mxCell>
        <mxCell id="JtnzJ_fRYUEVDxltZexB-113" value="My wardrobe" style="strokeWidth=1;shadow=0;dashed=0;align=center;html=1;shape=mxgraph.mockup.navigation.anchor;fontSize=17;fontColor=#666666;fontStyle=1;" vertex="1" parent="1">
          <mxGeometry x="425" y="1270" width="60" height="30" as="geometry" />
        </mxCell>
        <mxCell id="JtnzJ_fRYUEVDxltZexB-114" value="&gt;" style="strokeWidth=1;shadow=0;dashed=0;align=center;html=1;shape=mxgraph.mockup.navigation.anchor;fontSize=24;fontColor=#aaaaaa;fontStyle=1;" vertex="1" parent="1">
          <mxGeometry x="520" y="1270" width="20" height="30" as="geometry" />
        </mxCell>
        <mxCell id="JtnzJ_fRYUEVDxltZexB-115" value="&lt;font color=&quot;#007fff&quot;&gt;Item name&lt;/font&gt;" style="strokeWidth=1;shadow=0;dashed=0;align=center;html=1;shape=mxgraph.mockup.navigation.anchor;fontSize=17;fontColor=#666666;fontStyle=1;" vertex="1" parent="1">
          <mxGeometry x="560" y="1270" width="60" height="30" as="geometry" />
        </mxCell>
        <mxCell id="JtnzJ_fRYUEVDxltZexB-120" value="&lt;h1&gt;Detailed view&lt;/h1&gt;&lt;p&gt;All &lt;b&gt;defined&lt;/b&gt;&amp;nbsp;attributes are shown. All input fields are disabled in this view. If an attribute does not have a value, its field in hidden&lt;/p&gt;" style="text;html=1;strokeColor=none;fillColor=none;spacing=5;spacingTop=-20;whiteSpace=wrap;overflow=hidden;rounded=0;" vertex="1" parent="1">
          <mxGeometry x="1450" y="1440.5" width="190" height="120" as="geometry" />
        </mxCell>
        <mxCell id="JtnzJ_fRYUEVDxltZexB-121" value="&lt;font style=&quot;font-size: 24px;&quot;&gt;Item Name&lt;/font&gt;" style="text;html=1;strokeColor=none;fillColor=none;align=center;verticalAlign=middle;whiteSpace=wrap;rounded=0;" vertex="1" parent="1">
          <mxGeometry x="900" y="1270" width="400" height="30" as="geometry" />
        </mxCell>
        <mxCell id="JtnzJ_fRYUEVDxltZexB-122" style="edgeStyle=orthogonalEdgeStyle;rounded=0;orthogonalLoop=1;jettySize=auto;html=1;" edge="1" parent="1" source="JtnzJ_fRYUEVDxltZexB-6" target="JtnzJ_fRYUEVDxltZexB-77">
          <mxGeometry relative="1" as="geometry" />
        </mxCell>
        <mxCell id="JtnzJ_fRYUEVDxltZexB-123" value="&lt;h1&gt;Pagination&lt;/h1&gt;&lt;p&gt;Clothing items are displayed in a paginated manner. The number of items per page is customizable through the dropdown menu&lt;/p&gt;" style="text;html=1;strokeColor=none;fillColor=none;spacing=5;spacingTop=-20;whiteSpace=wrap;overflow=hidden;rounded=0;" vertex="1" parent="1">
          <mxGeometry x="990" y="900" width="190" height="120" as="geometry" />
        </mxCell>
        <mxCell id="JtnzJ_fRYUEVDxltZexB-124" value="" style="dashed=0;align=center;fontSize=12;shape=rect;fillColor=#ffffff;strokeColor=#cccccc;" vertex="1" parent="1">
          <mxGeometry x="780" y="830" width="155" height="20" as="geometry" />
        </mxCell>
        <mxCell id="JtnzJ_fRYUEVDxltZexB-125" value="20 items / page" style="text;fontColor=#000000;verticalAlign=middle;spacingLeft=13;fontSize=14;html=1;whiteSpace=wrap;align=left;" vertex="1" parent="JtnzJ_fRYUEVDxltZexB-124">
          <mxGeometry width="155" height="20" as="geometry" />
        </mxCell>
        <mxCell id="JtnzJ_fRYUEVDxltZexB-126" value="" style="shape=rect;fillColor=none;strokeColor=#cccccc;resizeHeight=1;" vertex="1" parent="JtnzJ_fRYUEVDxltZexB-124">
          <mxGeometry x="1" width="40" height="20" relative="1" as="geometry">
            <mxPoint x="-40" as="offset" />
          </mxGeometry>
        </mxCell>
        <mxCell id="JtnzJ_fRYUEVDxltZexB-127" value="" style="dashed=0;html=1;shape=mxgraph.gmdl.triangle;fillColor=#cccccc;strokeColor=none;" vertex="1" parent="JtnzJ_fRYUEVDxltZexB-126">
          <mxGeometry x="0.5" y="0.5" width="10" height="5" relative="1" as="geometry">
            <mxPoint x="-5" y="-2.5" as="offset" />
          </mxGeometry>
        </mxCell>
        <mxCell id="JtnzJ_fRYUEVDxltZexB-129" value="Item name&lt;font color=&quot;#ff0000&quot;&gt;*&lt;/font&gt;" style="fillColor=none;strokeColor=none;html=1;fontSize=11;fontStyle=0;align=left;fontColor=#596780;fontStyle=1;fontSize=11" vertex="1" parent="1">
          <mxGeometry x="905" y="1350" width="140" height="20" as="geometry" />
        </mxCell>
        <mxCell id="JtnzJ_fRYUEVDxltZexB-130" value="New item" style="rounded=1;arcSize=9;fillColor=#F7F8F9;align=left;spacingLeft=5;strokeColor=#DEE1E6;html=1;strokeWidth=2;fontSize=12" vertex="1" parent="1">
          <mxGeometry x="905" y="1370" width="140" height="30" as="geometry" />
        </mxCell>
        <mxCell id="JtnzJ_fRYUEVDxltZexB-133" value="Item Brand" style="fillColor=none;strokeColor=none;html=1;fontSize=11;fontStyle=0;align=left;fontColor=#596780;fontStyle=1;fontSize=11" vertex="1" parent="1">
          <mxGeometry x="505" y="1690" width="140" height="20" as="geometry" />
        </mxCell>
        <mxCell id="JtnzJ_fRYUEVDxltZexB-134" value="Nike" style="rounded=1;arcSize=9;fillColor=#F7F8F9;align=left;spacingLeft=5;strokeColor=#DEE1E6;html=1;strokeWidth=2;fontSize=12" vertex="1" parent="1">
          <mxGeometry x="505" y="1710" width="140" height="30" as="geometry" />
        </mxCell>
        <mxCell id="JtnzJ_fRYUEVDxltZexB-135" value="Item Color" style="fillColor=none;strokeColor=none;html=1;fontSize=11;fontStyle=0;align=left;fontColor=#596780;fontStyle=1;fontSize=11" vertex="1" parent="1">
          <mxGeometry x="795" y="1690" width="140" height="20" as="geometry" />
        </mxCell>
        <mxCell id="JtnzJ_fRYUEVDxltZexB-136" value="Blue" style="rounded=1;arcSize=9;fillColor=#F7F8F9;align=left;spacingLeft=5;strokeColor=#DEE1E6;html=1;strokeWidth=2;fontSize=12" vertex="1" parent="1">
          <mxGeometry x="795" y="1710" width="140" height="30" as="geometry" />
        </mxCell>
        <mxCell id="JtnzJ_fRYUEVDxltZexB-139" value="Item Size" style="fillColor=none;strokeColor=none;html=1;fontSize=11;fontStyle=0;align=left;fontColor=#596780;fontStyle=1;fontSize=11" vertex="1" parent="1">
          <mxGeometry x="795" y="1763" width="140" height="20" as="geometry" />
        </mxCell>
        <mxCell id="JtnzJ_fRYUEVDxltZexB-140" value="L" style="rounded=1;arcSize=9;fillColor=#F7F8F9;align=left;spacingLeft=5;strokeColor=#DEE1E6;html=1;strokeWidth=2;fontSize=12" vertex="1" parent="1">
          <mxGeometry x="795" y="1783" width="140" height="30" as="geometry" />
        </mxCell>
        <mxCell id="JtnzJ_fRYUEVDxltZexB-141" value="Item Material" style="fillColor=none;strokeColor=none;html=1;fontSize=11;fontStyle=0;align=left;fontColor=#596780;fontStyle=1;fontSize=11" vertex="1" parent="1">
          <mxGeometry x="795" y="1835" width="140" height="20" as="geometry" />
        </mxCell>
        <mxCell id="JtnzJ_fRYUEVDxltZexB-142" value="Cotton and Polyester" style="rounded=1;arcSize=9;fillColor=#F7F8F9;align=left;spacingLeft=5;strokeColor=#DEE1E6;html=1;strokeWidth=2;fontSize=12" vertex="1" parent="1">
          <mxGeometry x="795" y="1855" width="140" height="30" as="geometry" />
        </mxCell>
      </root>
    </mxGraphModel>
  </diagram>
</mxfile>
